<?xml version="1.0" encoding="UTF-8"?>
<svg id="Layer_2" xmlns="http://www.w3.org/2000/svg" xmlns:xlink="http://www.w3.org/1999/xlink" viewBox="0 0 3346.67 910.6">
  <defs>
    <style>
      .cls-1 {
        fill: #241f20;
      }

      .cls-2 {
        fill: #662d91;
      }

      .cls-3 {
        fill: url(#linear-gradient);
      }
    </style>
    <linearGradient id="linear-gradient" x1="1813.88" y1="31.41" x2="2477.02" y2="669.78" gradientUnits="userSpaceOnUse">
      <stop offset="0" stop-color="#0095ff"/>
      <stop offset=".14" stop-color="#238aff"/>
      <stop offset=".3" stop-color="#4580ff"/>
      <stop offset=".47" stop-color="#6078ff"/>
      <stop offset=".64" stop-color="#7372ff"/>
      <stop offset=".81" stop-color="#7e6fff"/>
      <stop offset="1" stop-color="#826eff"/>
    </linearGradient>
  </defs>
  <g id="Layer_1-2" data-name="Layer_1">
    <path class="cls-1" d="M735.44,214.18c28.31-14.77,60.65-22.16,97.02-22.16,42.32,0,80.61,10.14,114.9,30.41,34.27,20.28,61.39,49.09,81.37,86.45,19.97,37.36,29.95,80.67,29.95,129.9s-9.99,92.84-29.95,130.77c-19.98,37.95-47.1,67.34-81.37,88.19-34.29,20.85-72.58,31.28-114.9,31.28-36.37,0-68.4-7.25-96.12-21.72-27.72-14.47-50.23-32.72-67.51-54.74v298.03h-125.18V199.84h125.18v69.51c16.09-22.01,38.3-40.4,66.62-55.17ZM912.49,363.63c-12.23-21.14-28.32-37.21-48.29-48.22-19.98-11-41.58-16.51-64.83-16.51s-43.97,5.65-63.93,16.94c-19.98,11.3-36.07,27.67-48.29,49.09-12.23,21.44-18.33,46.64-18.33,75.59s6.11,54.17,18.33,75.59c12.21,21.44,28.31,37.8,48.29,49.09,19.97,11.3,41.27,16.94,63.93,16.94s44.85-5.78,64.83-17.38c19.97-11.58,36.06-28.09,48.29-49.53,12.21-21.42,18.33-46.92,18.33-76.46s-6.12-54.01-18.33-75.16Z"/>
    <path class="cls-1" d="M1118.14,122.08c-14.61-13.6-21.91-30.55-21.91-50.83s7.29-37.21,21.91-50.83c14.6-13.6,32.93-20.42,54.99-20.42s40.38,6.82,54.99,20.42c14.6,13.62,21.91,30.56,21.91,50.83s-7.31,37.23-21.91,50.83c-14.61,13.62-32.94,20.42-54.99,20.42s-40.39-6.8-54.99-20.42ZM1234.83,199.84v481.36h-125.18V199.84h125.18Z"/>
    <g>
      <path class="cls-2" d="M2195.16,216.79c29.2,15.94,52,39.4,68.4,70.38,16.39,30.99,24.59,68.21,24.59,111.65v282.39h-125.18v-265.88c0-38.23-9.84-67.62-29.51-88.19-19.67-20.55-46.5-30.85-80.48-30.85s-61.85,10.29-81.82,30.85c-19.98,20.57-29.95,49.96-29.95,88.19v265.88h-125.18V38.23h125.18v221.57c16.09-20.85,37.56-37.21,64.38-49.09,26.83-11.87,56.63-17.81,89.42-17.81,37.56,0,70.93,7.97,100.15,23.89ZM2365.32,122.08c-14.61-13.6-21.91-30.55-21.91-50.83s7.29-37.21,21.91-50.83c14.6-13.6,32.93-20.42,54.99-20.42s40.38,6.82,54.99,20.42c14.6,13.62,21.91,30.56,21.91,50.83s-7.31,37.23-21.91,50.83c-14.61,13.62-32.94,20.42-54.99,20.42s-40.39-6.8-54.99-20.42ZM2482.01,199.84v481.36h-125.18V199.84h125.18Z"/>
      <path class="cls-3" d="M2195.16,216.79c29.2,15.94,52,39.4,68.4,70.38,16.39,30.99,24.59,68.21,24.59,111.65v282.39h-125.18v-265.88c0-38.23-9.84-67.62-29.51-88.19-19.67-20.55-46.5-30.85-80.48-30.85s-61.85,10.29-81.82,30.85c-19.98,20.57-29.95,49.96-29.95,88.19v265.88h-125.18V38.23h125.18v221.57c16.09-20.85,37.56-37.21,64.38-49.09,26.83-11.87,56.63-17.81,89.42-17.81,37.56,0,70.93,7.97,100.15,23.89ZM2365.32,122.08c-14.61-13.6-21.91-30.55-21.91-50.83s7.29-37.21,21.91-50.83c14.6-13.6,32.93-20.42,54.99-20.42s40.38,6.82,54.99,20.42c14.6,13.62,21.91,30.56,21.91,50.83s-7.31,37.23-21.91,50.83c-14.61,13.62-32.94,20.42-54.99,20.42s-40.39-6.8-54.99-20.42ZM2482.01,199.84v481.36h-125.18V199.84h125.18Z"/>
    </g>
    <path class="cls-1" d="M2753.39,214.62c25.93-14.47,55.58-21.72,88.97-21.72v127.73h-33.08c-39.34,0-69,8.99-88.97,26.94-19.98,17.96-29.95,49.24-29.95,93.84v239.81h-125.18V199.84h125.18v74.72c16.1-25.48,37.11-45.47,63.04-59.95Z"/>
    <path class="cls-1" d="M345.15,530.02c-19.67,38.82-52.76,58.22-99.25,58.22-32.19,0-59.32-9.84-81.37-29.54-22.06-19.69-34.58-46.92-37.56-81.68h362.14c2.38-13.9,3.58-29.54,3.58-46.92,0-46.92-10.28-88.48-30.85-124.69-20.57-36.2-49.49-64.15-86.73-83.85-37.26-19.69-79.44-29.54-126.52-29.54s-92.1,10.14-129.65,30.41c-37.56,20.28-66.77,49.24-87.63,86.89C10.42,346.99,0,390.71,0,440.53s10.58,92.69,31.74,130.33c21.15,37.66,50.66,66.77,88.52,87.32,37.85,20.57,80.61,30.85,128.31,30.85,59.02,0,108.78-14.91,149.33-44.75,31.53-23.2,55.12-51.4,70.79-84.6l-123.54-29.66ZM166.76,319.32c21.15-18.25,47.24-27.37,78.24-27.37,32.78,0,60.5,9.42,83.16,28.24,22.65,18.83,34.27,43.88,34.87,75.16H127.87c4.76-32.43,17.73-57.78,38.9-76.03Z"/>
    <path class="cls-1" d="M3199.13,530.02h0c-19.67,38.82-52.76,58.22-99.25,58.22-32.19,0-59.32-9.84-81.37-29.54-22.06-19.69-34.58-46.92-37.56-81.68h362.14c2.38-13.9,3.58-29.54,3.58-46.92,0-46.92-10.28-88.48-30.85-124.69-20.57-36.2-49.49-64.15-86.73-83.85-37.26-19.69-79.44-29.54-126.52-29.54s-92.1,10.14-129.65,30.41c-37.56,20.28-66.77,49.24-87.63,86.89-20.87,37.66-31.3,81.39-31.3,131.2s10.58,92.69,31.74,130.33c21.15,37.66,50.66,66.77,88.52,87.32,37.85,20.57,80.61,30.85,128.31,30.85,59.02,0,108.78-14.91,149.33-44.75,31.53-23.2,55.12-51.4,70.79-84.6l-123.54-29.66ZM3020.74,319.32c21.15-18.25,47.24-27.37,78.24-27.37,32.78,0,60.5,9.42,83.16,28.24,22.65,18.83,34.27,43.88,34.87,75.16h-235.17c4.76-32.43,17.73-57.78,38.9-76.03Z"/>
    <path class="cls-1" d="M1653.9,492.68c-9.85,44.97-37.86,91.99-115.01,91.99-122.14,0-118.22-130.03-118.22-144.62,0-22.11,1.7-144.62,118.22-144.62,78.91,0,106.29,50.41,115.55,95.47l118.57-15.96.9,1.12c-34.29-184.03-215.23-184.04-236.11-184.04-130.76,0-245.17,83.92-245.17,248.5,0,25.08,10.1,248.5,245.17,248.5,104.02,0,209.03-49.62,235.4-181.16l-119.3-15.19Z"/>
  </g>
</svg>